REM DIRINDEX 1\2\3,1\2\4,1\2\5,1\2\6
REM DIRNAME cjc157,folder01,folder02,folder03,folder04,folder05
TITLE ""
FILE "152 152.mp3" MP3
  TRACK 01 AUDIO
    TITLE "0:"
    INDEX 01 00:00:00
  TRACK 02 AUDIO
    TITLE "3:cjc157_5594"
    INDEX 01 00:00:11
  TRACK 03 AUDIO
    TITLE "0:"
    INDEX 01 00:02:10
  TRACK 04 AUDIO
    TITLE "4:cjc157_5595"
    INDEX 01 00:02:55
  TRACK 05 AUDIO
    TITLE "0:"
    INDEX 01 00:06:06
  TRACK 06 AUDIO
    TITLE "5:cjc157_5596"
    INDEX 01 00:06:51
  TRACK 07 AUDIO
    TITLE "0:"
    INDEX 01 00:10:08
  TRACK 08 AUDIO
    TITLE "5:cjc157_5597"
    INDEX 01 00:10:57
  TRACK 09 AUDIO
    TITLE "0:"
    INDEX 01 00:13:55
  TRACK 10 AUDIO
    TITLE "3:cjc157_5598"
    INDEX 01 00:14:31
  TRACK 11 AUDIO
    TITLE "0:"
    INDEX 01 00:16:10
  TRACK 12 AUDIO
    TITLE "4:cjc157_5599"
    INDEX 01 00:16:53
  TRACK 13 AUDIO
    TITLE "0:"
    INDEX 01 00:18:05
  TRACK 14 AUDIO
    TITLE "5:cjc157_5600"
    INDEX 01 00:18:50
  TRACK 15 AUDIO
    TITLE "0:"
    INDEX 01 00:22:07
  TRACK 16 AUDIO
    TITLE "3:cjc157_5601"
    INDEX 01 00:22:48
  TRACK 17 AUDIO
    TITLE "0:"
    INDEX 01 00:24:06
  TRACK 18 AUDIO
    TITLE "4:cjc157_5602"
    INDEX 01 00:24:53
  TRACK 19 AUDIO
    TITLE "0:"
    INDEX 01 00:25:52
  TRACK 20 AUDIO
    TITLE "5:cjc157_5603"
    INDEX 01 00:26:44
  TRACK 21 AUDIO
    TITLE "0:"
    INDEX 01 00:29:36
  TRACK 22 AUDIO
    TITLE "5:cjc157_5604"
    INDEX 01 00:30:08
  TRACK 23 AUDIO
    TITLE "0:"
    INDEX 01 00:32:17
  TRACK 24 AUDIO
    TITLE "3:cjc157_5605"
    INDEX 01 00:32:64
  TRACK 25 AUDIO
    TITLE "0:"
    INDEX 01 00:34:12
  TRACK 26 AUDIO
    TITLE "4:cjc157_5606"
    INDEX 01 00:34:55
  TRACK 27 AUDIO
    TITLE "0:"
    INDEX 01 00:36:03
  TRACK 28 AUDIO
    TITLE "5:cjc157_5607"
    INDEX 01 00:36:48
  TRACK 29 AUDIO
    TITLE "0:"
    INDEX 01 00:40:09
  TRACK 30 AUDIO
    TITLE "3:cjc157_5608"
    INDEX 01 00:40:54
  TRACK 31 AUDIO
    TITLE "0:"
    INDEX 01 00:42:39
  TRACK 32 AUDIO
    TITLE "4:cjc157_5609"
    INDEX 01 00:43:09
  TRACK 33 AUDIO
    TITLE "0:"
    INDEX 01 00:44:32
  TRACK 34 AUDIO
    TITLE "5:cjc157_5610"
    INDEX 01 00:45:04
  TRACK 35 AUDIO
    TITLE "0:"
    INDEX 01 00:48:04
  TRACK 36 AUDIO
    TITLE "3:cjc157_5611"
    INDEX 01 00:48:51
  TRACK 37 AUDIO
    TITLE "0:"
    INDEX 01 00:50:41
  TRACK 38 AUDIO
    TITLE "4:cjc157_5612"
    INDEX 01 00:51:15
  TRACK 39 AUDIO
    TITLE "0:"
    INDEX 01 00:53:13
  TRACK 40 AUDIO
    TITLE "5:cjc157_5613"
    INDEX 01 00:53:60
  TRACK 41 AUDIO
    TITLE "0:"
    INDEX 01 00:56:41
  TRACK 42 AUDIO
    TITLE "3:cjc157_5614"
    INDEX 01 00:57:13
  TRACK 43 AUDIO
    TITLE "0:"
    INDEX 01 00:58:30
  TRACK 44 AUDIO
    TITLE "4:cjc157_5615"
    INDEX 01 00:58:73
  TRACK 45 AUDIO
    TITLE "0:"
    INDEX 01 01:00:23
  TRACK 46 AUDIO
    TITLE "5:cjc157_5616"
    INDEX 01 01:00:70
  TRACK 47 AUDIO
    TITLE "0:"
    INDEX 01 01:03:14
  TRACK 48 AUDIO
    TITLE "3:cjc157_5617"
    INDEX 01 01:03:57
  TRACK 49 AUDIO
    TITLE "0:"
    INDEX 01 01:05:38
  TRACK 50 AUDIO
    TITLE "4:cjc157_5618"
    INDEX 01 01:06:10
  TRACK 51 AUDIO
    TITLE "0:"
    INDEX 01 01:07:66
  TRACK 52 AUDIO
    TITLE "5:cjc157_5619"
    INDEX 01 01:08:46
  TRACK 53 AUDIO
    TITLE "0:"
    INDEX 01 01:11:58
  TRACK 54 AUDIO
    TITLE "3:cjc157_5620"
    INDEX 01 01:12:28
  TRACK 55 AUDIO
    TITLE "0:"
    INDEX 01 01:13:45
  TRACK 56 AUDIO
    TITLE "4:cjc157_5621"
    INDEX 01 01:14:19
  TRACK 57 AUDIO
    TITLE "0:"
    INDEX 01 01:15:44
  TRACK 58 AUDIO
    TITLE "5:cjc157_5622"
    INDEX 01 01:16:16
  TRACK 59 AUDIO
    TITLE "0:"
    INDEX 01 01:19:23
  TRACK 60 AUDIO
    TITLE "5:cjc157_5623"
    INDEX 01 01:19:72
  TRACK 61 AUDIO
    TITLE "0:"
    INDEX 01 01:23:26
  TRACK 62 AUDIO
    TITLE "3:cjc157_5624"
    INDEX 01 01:24:08
  TRACK 63 AUDIO
    TITLE "0:"
    INDEX 01 01:25:41
  TRACK 64 AUDIO
    TITLE "4:cjc157_5625"
    INDEX 01 01:26:15
  TRACK 65 AUDIO
    TITLE "0:"
    INDEX 01 01:27:48
  TRACK 66 AUDIO
    TITLE "5:cjc157_5626"
    INDEX 01 01:28:20
  TRACK 67 AUDIO
    TITLE "0:"
    INDEX 01 01:31:73
